<svg width="16" height="15" viewBox="0 0 16 15" fill="none" xmlns="http://www.w3.org/2000/svg">
<path d="M13.7748 0.31096C14.1654 -0.0795647 14.7985 -0.0795647 15.189 0.31096C15.5796 0.701484 15.5796 1.33465 15.189 1.72517L9.41431 7.49991L15.189 13.2746C15.5795 13.6651 15.5795 14.2983 15.189 14.6888C14.7985 15.0793 14.1653 15.0793 13.7748 14.6888L8.00009 8.91412L2.22542 14.6888C1.83489 15.0793 1.20173 15.0793 0.811202 14.6888C0.420678 14.2983 0.420678 13.6651 0.811202 13.2746L6.58588 7.49991L0.811143 1.72517C0.420618 1.33465 0.420618 0.701484 0.811143 0.31096C1.20167 -0.0795647 1.83483 -0.0795647 2.22536 0.31096L8.00009 6.08569L13.7748 0.31096Z" fill="currentColor"/>
</svg>
